<mxfile host="app.diagrams.net" modified="2024-05-15T05:30:54.767Z" agent="Mozilla/5.0 (Windows NT 10.0; Win64; x64) AppleWebKit/537.36 (KHTML, like Gecko) Chrome/123.0.0.0 Safari/537.36 OPR/109.0.0.0" version="24.3.1" etag="Y7CcFBti2tqSQW8CfA74" type="github">
  <diagram name="PÃ¡gina-1" id="k2Mj-2MrIM1lMjn2V7K-">
    <mxGraphModel>
      <root>
        <mxCell id="0" />
        <mxCell id="1" parent="0" />
      </root>
    </mxGraphModel>
  </diagram>
</mxfile>
